<svg width="16" height="16" viewBox="0 0 16 16" fill="none" xmlns="http://www.w3.org/2000/svg">
<path fill-rule="evenodd" clip-rule="evenodd" d="M8.00065 0C11.6654 0 14.6673 3.04808 14.6673 6.76923V10.4615C14.6673 11.4736 13.8458 12.3077 12.8491 12.3077H11.031V6.76923H13.4552C13.4552 3.72115 11.0025 1.23077 8.00065 1.23077C4.99876 1.23077 2.54611 3.72115 2.54611 6.76923H4.97035V12.3077H3.75823C3.75823 13.3269 4.57262 14.1538 5.57641 14.1538H6.35292C6.56362 13.7861 6.94715 13.5385 7.39459 13.5385H8.60671C9.27433 13.5385 9.81883 14.0913 9.81883 14.7692C9.81883 15.4471 9.27433 16 8.60671 16H7.39459C6.94715 16 6.56362 15.7524 6.35292 15.3846H5.57641C3.91211 15.3846 2.54611 13.9976 2.54611 12.3077V12.1923C1.84535 11.9351 1.33398 11.2572 1.33398 10.4615V6.76923C1.33398 3.04808 4.33588 0 8.00065 0ZM3.75823 8H2.54611V10.4615C2.54611 10.8029 2.81599 11.0769 3.15217 11.0769H3.75823V8ZM13.4552 8H12.2431V11.0769H12.8491C13.1853 11.0769 13.4552 10.8029 13.4552 10.4615V8Z" fill="white"/>
<mask id="mask0_1692_187086" style="mask-type:luminance" maskUnits="userSpaceOnUse" x="1" y="0" width="14" height="16">
<path fill-rule="evenodd" clip-rule="evenodd" d="M8.00065 0C11.6654 0 14.6673 3.04808 14.6673 6.76923V10.4615C14.6673 11.4736 13.8458 12.3077 12.8491 12.3077H11.031V6.76923H13.4552C13.4552 3.72115 11.0025 1.23077 8.00065 1.23077C4.99876 1.23077 2.54611 3.72115 2.54611 6.76923H4.97035V12.3077H3.75823C3.75823 13.3269 4.57262 14.1538 5.57641 14.1538H6.35292C6.56362 13.7861 6.94715 13.5385 7.39459 13.5385H8.60671C9.27433 13.5385 9.81883 14.0913 9.81883 14.7692C9.81883 15.4471 9.27433 16 8.60671 16H7.39459C6.94715 16 6.56362 15.7524 6.35292 15.3846H5.57641C3.91211 15.3846 2.54611 13.9976 2.54611 12.3077V12.1923C1.84535 11.9351 1.33398 11.2572 1.33398 10.4615V6.76923C1.33398 3.04808 4.33588 0 8.00065 0ZM3.75823 8H2.54611V10.4615C2.54611 10.8029 2.81599 11.0769 3.15217 11.0769H3.75823V8ZM13.4552 8H12.2431V11.0769H12.8491C13.1853 11.0769 13.4552 10.8029 13.4552 10.4615V8Z" fill="white"/>
</mask>
<g mask="url(#mask0_1692_187086)">
</g>
</svg>
